<?xml version="1.0" encoding="utf-8"?>
<!-- Generator: Adobe Illustrator 19.1.0, SVG Export Plug-In . SVG Version: 6.00 Build 0)  -->
<svg version="1.1" id="Layer_1" xmlns="http://www.w3.org/2000/svg" xmlns:xlink="http://www.w3.org/1999/xlink" x="0px" y="0px"
	 viewBox="0 0 300 87.1" style="enable-background:new 0 0 300 87.1;" xml:space="preserve">
<style type="text/css">
	.st0{opacity:0.8;}
	.st1{fill:#FFFFFF;}
	.st2{fill:#1338C8;}
</style>
<g class="st0">
	<path class="st1" d="M71.9,48.9l0,0.1c0.1,3-0.7,5.3-2.3,6.8S65.8,58,62.9,58c-3,0-5.4-0.9-7.2-2.7S53,51,53,47.7v-8.3
		c0-3.3,0.9-5.8,2.6-7.6s4-2.7,7-2.7c3.1,0,5.4,0.7,7.1,2.2c1.6,1.5,2.4,3.7,2.4,6.8l0,0.1h-5.3c0-1.8-0.3-3.1-1-3.8
		c-0.6-0.7-1.7-1.1-3.2-1.1c-1.4,0-2.4,0.5-3.1,1.5c-0.7,1-1,2.5-1,4.5v8.4c0,2,0.4,3.6,1.1,4.5c0.7,1,1.8,1.5,3.3,1.5
		c1.3,0,2.3-0.4,2.9-1.1c0.6-0.7,0.9-2,0.9-3.8H71.9z"/>
	<path class="st1" d="M95.3,47.5c0,3.3-0.9,5.9-2.8,7.7c-1.9,1.9-4.3,2.8-7.4,2.8s-5.6-0.9-7.4-2.8c-1.9-1.9-2.8-4.4-2.8-7.7v-7.8
		c0-3.3,0.9-5.9,2.8-7.7c1.8-1.9,4.3-2.8,7.4-2.8c3.1,0,5.6,0.9,7.5,2.8c1.9,1.9,2.8,4.5,2.8,7.7V47.5z M89.9,39.6
		c0-2-0.4-3.6-1.2-4.6c-0.8-1-2-1.6-3.6-1.6c-1.6,0-2.8,0.5-3.6,1.6c-0.8,1-1.2,2.6-1.2,4.6v7.9c0,2.1,0.4,3.6,1.2,4.7
		c0.8,1,2,1.6,3.6,1.6s2.8-0.5,3.6-1.6c0.8-1,1.2-2.6,1.2-4.7V39.6z"/>
	<path class="st1" d="M111.3,50.3h0.1l5.3-20.8h7.1v28.1h-5.4V39.9l-0.1,0l-5.1,17.7h-3.6l-5-17.6l-0.1,0v17.5H99V29.5h7.1
		L111.3,50.3z"/>
	<path class="st1" d="M133.7,57.6h-5.4V29.5h5.4V57.6z"/>
	<path class="st1" d="M158.3,57.6h-5.4l-8.9-17.9l-0.1,0v17.9h-5.4V29.5h5.4l8.9,17.9l0.1,0V29.5h5.4V57.6z"/>
	<path class="st1" d="M181.4,53.9c-0.8,1.1-2,2.1-3.5,2.9s-3.5,1.2-5.9,1.2c-3,0-5.5-0.9-7.3-2.7c-1.8-1.8-2.7-4.3-2.7-7.5v-8.5
		c0-3.2,0.9-5.7,2.7-7.5c1.8-1.8,4.1-2.7,7.1-2.7c3.1,0,5.4,0.7,6.9,2.2c1.6,1.4,2.3,3.5,2.3,6.2l0,0.1h-5.1c0-1.5-0.3-2.5-1-3.2
		c-0.6-0.7-1.6-1-2.9-1c-1.4,0-2.5,0.5-3.3,1.5c-0.8,1-1.2,2.4-1.2,4.4v8.6c0,2,0.4,3.5,1.2,4.5c0.8,1,1.9,1.5,3.4,1.5
		c1.1,0,1.9-0.1,2.5-0.4c0.6-0.2,1.1-0.6,1.4-1v-5.7h-4.3V43h9.7V53.9z"/>
	<path class="st1" d="M206.4,50.3c0-1.1-0.3-2-0.9-2.7c-0.6-0.6-1.6-1.3-3.1-1.9c-2.9-1-5-2.2-6.5-3.5s-2.2-3.1-2.2-5.4
		c0-2.3,0.8-4.2,2.5-5.6c1.7-1.4,3.8-2.2,6.3-2.2c2.7,0,4.9,0.8,6.6,2.3c1.7,1.5,2.5,3.6,2.4,6.2l0,0.1h-5.3c0-1.5-0.3-2.6-1-3.3
		c-0.6-0.8-1.6-1.1-2.8-1.1c-1,0-1.9,0.3-2.4,1c-0.6,0.7-0.9,1.5-0.9,2.6c0,1,0.3,1.7,1,2.4s1.8,1.3,3.4,2c2.7,0.9,4.8,2,6.2,3.4
		c1.4,1.4,2.1,3.2,2.1,5.6c0,2.4-0.8,4.3-2.4,5.7c-1.6,1.4-3.8,2.1-6.5,2.1c-2.7,0-4.9-0.7-6.8-2.2c-1.9-1.5-2.8-3.7-2.7-6.8l0-0.1
		h5.3c0,1.8,0.4,3,1.1,3.8c0.7,0.8,1.8,1.2,3.2,1.2c1.2,0,2-0.3,2.6-1C206.1,52.2,206.4,51.4,206.4,50.3z"/>
	<path class="st1" d="M235.3,47.5c0,3.3-0.9,5.9-2.8,7.7c-1.9,1.9-4.3,2.8-7.4,2.8s-5.6-0.9-7.4-2.8c-1.9-1.9-2.8-4.4-2.8-7.7v-7.8
		c0-3.3,0.9-5.9,2.8-7.7c1.8-1.9,4.3-2.8,7.4-2.8c3.1,0,5.6,0.9,7.5,2.8c1.9,1.9,2.8,4.5,2.8,7.7V47.5z M229.9,39.6
		c0-2-0.4-3.6-1.2-4.6c-0.8-1-2-1.6-3.6-1.6c-1.6,0-2.8,0.5-3.6,1.6c-0.8,1-1.2,2.6-1.2,4.6v7.9c0,2.1,0.4,3.6,1.2,4.7
		c0.8,1,2,1.6,3.6,1.6s2.8-0.5,3.6-1.6c0.8-1,1.2-2.6,1.2-4.7V39.6z"/>
	<path class="st1" d="M259,47.5c0,3.3-0.9,5.9-2.8,7.7c-1.9,1.9-4.3,2.8-7.4,2.8c-3.1,0-5.6-0.9-7.4-2.8c-1.9-1.9-2.8-4.4-2.8-7.7
		v-7.8c0-3.3,0.9-5.9,2.8-7.7c1.8-1.9,4.3-2.8,7.4-2.8s5.6,0.9,7.5,2.8c1.9,1.9,2.8,4.5,2.8,7.7V47.5z M253.6,39.6
		c0-2-0.4-3.6-1.2-4.6c-0.8-1-2-1.6-3.6-1.6c-1.6,0-2.8,0.5-3.6,1.6c-0.8,1-1.2,2.6-1.2,4.6v7.9c0,2.1,0.4,3.6,1.2,4.7
		c0.8,1,2,1.6,3.6,1.6s2.8-0.5,3.6-1.6c0.8-1,1.2-2.6,1.2-4.7V39.6z"/>
	<path class="st1" d="M282.8,57.6h-5.4l-8.9-17.9l-0.1,0v17.9h-5.4V29.5h5.4l8.9,17.9l0.1,0V29.5h5.4V57.6z"/>
</g>
<rect class="st2" width="35.8" height="87.1"/>
<g>
	<path class="st1" d="M28.3,55.1v4L15,65.7l0,0.1h13.2v4H7.5v-4l13.3-6.6l0-0.1H7.5v-4H28.3z"/>
	<path class="st1" d="M19.1,41.5v6.3h6v-7.6h3.1v11.6H7.5V40.3h3.1v7.6H16v-6.3H19.1z"/>
	<path class="st1" d="M20.7,23.6L20.7,23.6L7.5,21.4v-4.1l20.8,4.1v3.7l-12.9,3v0.1l12.9,3V35L7.5,39.1v-4.1l13.2-2.1l0-0.1l-13.2-3
		v-3.2L20.7,23.6z"/>
</g>
</svg>
