<?xml version="1.0" encoding="utf-8"?>
<!-- Generator: Adobe Illustrator 19.1.0, SVG Export Plug-In . SVG Version: 6.00 Build 0)  -->
<svg version="1.1" id="Layer_1" xmlns="http://www.w3.org/2000/svg" xmlns:xlink="http://www.w3.org/1999/xlink" x="0px" y="0px"
	 viewBox="0 0 300 87.1" style="enable-background:new 0 0 300 87.1;" xml:space="preserve">
<style type="text/css">
	.st0{opacity:0.8;}
	.st1{fill:#FFFFFF;}
</style>
<g class="st0">
	<path class="st1" d="M33.9,50l0,0.1c0.1,3.6-0.9,6.4-2.8,8.2c-1.9,1.8-4.7,2.7-8.2,2.7c-3.7,0-6.6-1.1-8.7-3.2
		c-2.1-2.2-3.2-5.2-3.2-9.2V38.5c0-4,1-7,3.1-9.2s4.9-3.3,8.4-3.3c3.7,0,6.6,0.9,8.6,2.7c2,1.8,3,4.5,2.9,8.2l0,0.1h-6.4
		c0-2.2-0.4-3.7-1.2-4.6c-0.8-0.9-2.1-1.3-3.9-1.3c-1.6,0-2.9,0.6-3.7,1.8c-0.8,1.2-1.2,3-1.2,5.5v10.1c0,2.5,0.4,4.3,1.3,5.5
		c0.9,1.2,2.2,1.8,4,1.8c1.6,0,2.8-0.4,3.5-1.3c0.7-0.9,1.1-2.4,1.1-4.6H33.9z"/>
	<path class="st1" d="M62.2,48.3c0,4-1.1,7.1-3.4,9.4s-5.3,3.4-9,3.4c-3.7,0-6.7-1.1-9-3.4s-3.4-5.4-3.4-9.4v-9.5
		c0-4,1.1-7.1,3.3-9.4c2.2-2.3,5.2-3.4,9-3.4s6.8,1.1,9,3.4c2.3,2.3,3.4,5.4,3.4,9.4V48.3z M55.6,38.8c0-2.5-0.5-4.3-1.5-5.6
		c-1-1.3-2.5-1.9-4.4-1.9c-1.9,0-3.4,0.6-4.3,1.9c-1,1.3-1.4,3.1-1.4,5.6v9.5c0,2.5,0.5,4.4,1.5,5.7c1,1.3,2.4,1.9,4.3,1.9
		s3.4-0.6,4.4-1.9s1.5-3.2,1.5-5.7V38.8z"/>
	<path class="st1" d="M81.5,51.8h0.1L88,26.6h8.6v34h-6.5V39.1l-0.1,0l-6.1,21.4h-4.4l-6.1-21.3l-0.1,0v21.2h-6.6v-34h8.6L81.5,51.8
		z"/>
	<path class="st1" d="M108.7,60.5h-6.6v-34h6.6V60.5z"/>
	<path class="st1" d="M138.4,60.5h-6.6L121,38.9l-0.1,0v21.7h-6.6v-34h6.6l10.8,21.7l0.1,0V26.6h6.6V60.5z"/>
	<path class="st1" d="M166.4,56.1c-1,1.4-2.4,2.5-4.2,3.5c-1.8,1-4.2,1.5-7.1,1.5c-3.7,0-6.6-1.1-8.8-3.2c-2.2-2.1-3.3-5.2-3.3-9.1
		V38.4c0-3.9,1.1-7,3.2-9.1c2.2-2.1,5-3.2,8.6-3.2c3.7,0,6.5,0.9,8.4,2.6c1.9,1.8,2.8,4.2,2.7,7.5l0,0.1h-6.2c0-1.8-0.4-3.1-1.2-3.9
		s-2-1.2-3.5-1.2c-1.7,0-3,0.6-4,1.8c-0.9,1.2-1.4,3-1.4,5.3v10.4c0,2.4,0.5,4.2,1.4,5.4c1,1.2,2.3,1.8,4.1,1.8c1.3,0,2.3-0.2,3-0.5
		c0.7-0.3,1.3-0.7,1.7-1.2v-6.9h-5.2v-4.6h11.8V56.1z"/>
	<path class="st1" d="M196.7,51.7c0-1.4-0.3-2.4-1-3.2c-0.7-0.8-1.9-1.6-3.7-2.3c-3.5-1.2-6.1-2.6-7.9-4.2c-1.8-1.6-2.6-3.7-2.6-6.5
		c0-2.8,1-5.1,3-6.8c2-1.7,4.6-2.6,7.7-2.6c3.3,0,6,0.9,8,2.8c2,1.9,3,4.4,2.9,7.5l0,0.1h-6.4c0-1.8-0.4-3.1-1.2-4
		c-0.8-0.9-1.9-1.4-3.4-1.4c-1.3,0-2.2,0.4-2.9,1.2c-0.7,0.8-1.1,1.9-1.1,3.1c0,1.2,0.4,2.1,1.2,2.8c0.8,0.7,2.2,1.6,4.1,2.5
		c3.3,1.1,5.8,2.5,7.5,4.1c1.7,1.7,2.5,3.9,2.5,6.7c0,2.9-1,5.2-3,6.9c-2,1.7-4.6,2.5-7.9,2.5c-3.2,0-6-0.9-8.3-2.7
		c-2.3-1.8-3.4-4.5-3.3-8.2l0-0.1h6.4c0,2.1,0.4,3.7,1.3,4.6c0.9,0.9,2.1,1.4,3.8,1.4c1.4,0,2.5-0.4,3.2-1.2
		C196.3,54,196.7,53,196.7,51.7z"/>
	<path class="st1" d="M231.6,48.3c0,4-1.1,7.1-3.4,9.4s-5.3,3.4-9,3.4c-3.7,0-6.7-1.1-9-3.4s-3.4-5.4-3.4-9.4v-9.5
		c0-4,1.1-7.1,3.3-9.4c2.2-2.3,5.2-3.4,9-3.4s6.8,1.1,9,3.4c2.3,2.3,3.4,5.4,3.4,9.4V48.3z M225.1,38.8c0-2.5-0.5-4.3-1.5-5.6
		c-1-1.3-2.5-1.9-4.4-1.9c-1.9,0-3.4,0.6-4.3,1.9c-1,1.3-1.4,3.1-1.4,5.6v9.5c0,2.5,0.5,4.4,1.5,5.7c1,1.3,2.4,1.9,4.3,1.9
		c1.9,0,3.4-0.6,4.4-1.9c1-1.3,1.5-3.2,1.5-5.7V38.8z"/>
	<path class="st1" d="M260.3,48.3c0,4-1.1,7.1-3.4,9.4c-2.3,2.2-5.3,3.4-9,3.4c-3.7,0-6.7-1.1-9-3.4c-2.2-2.2-3.4-5.4-3.4-9.4v-9.5
		c0-4,1.1-7.1,3.3-9.4c2.2-2.3,5.2-3.4,9-3.4s6.8,1.1,9,3.4c2.3,2.3,3.4,5.4,3.4,9.4V48.3z M253.8,38.8c0-2.5-0.5-4.3-1.5-5.6
		c-1-1.3-2.5-1.9-4.4-1.9c-1.9,0-3.4,0.6-4.3,1.9c-1,1.3-1.4,3.1-1.4,5.6v9.5c0,2.5,0.5,4.4,1.5,5.7c1,1.3,2.4,1.9,4.3,1.9
		c1.9,0,3.4-0.6,4.4-1.9c1-1.3,1.5-3.2,1.5-5.7V38.8z"/>
	<path class="st1" d="M289,60.5h-6.6l-10.8-21.7l-0.1,0v21.7h-6.6v-34h6.6l10.8,21.7l0.1,0V26.6h6.6V60.5z"/>
</g>
</svg>
