<?xml version="1.0" encoding="utf-8"?>
<!-- Generator: Adobe Illustrator 19.1.0, SVG Export Plug-In . SVG Version: 6.00 Build 0)  -->
<svg version="1.1" id="Layer_1" xmlns="http://www.w3.org/2000/svg" xmlns:xlink="http://www.w3.org/1999/xlink" x="0px" y="0px"
	 viewBox="0 0 300 87.1" style="enable-background:new 0 0 300 87.1;" xml:space="preserve">
<style type="text/css">
	.st0{fill:#1338C8;}
</style>
<g>
	<path class="st0" d="M48,53.8c0-1.7-0.4-3-1.3-4c-0.9-1-2.4-1.9-4.7-2.9c-4.4-1.5-7.7-3.3-9.9-5.2c-2.2-2-3.3-4.7-3.3-8.2
		c0-3.5,1.3-6.3,3.8-8.5c2.5-2.2,5.7-3.3,9.6-3.3c4.1,0,7.5,1.2,10,3.5c2.5,2.3,3.7,5.5,3.7,9.4l-0.1,0.2h-8c0-2.2-0.5-3.9-1.5-5
		S43.9,28,42.1,28c-1.6,0-2.8,0.5-3.7,1.6c-0.9,1-1.3,2.3-1.3,3.9c0,1.4,0.5,2.6,1.5,3.6c1,0.9,2.7,2,5.1,3.1
		c4.1,1.4,7.2,3.1,9.3,5.2c2.1,2.1,3.2,4.9,3.2,8.4c0,3.6-1.2,6.5-3.7,8.6c-2.5,2.1-5.8,3.1-9.9,3.1c-4,0-7.5-1.1-10.4-3.4
		c-2.9-2.3-4.3-5.7-4.2-10.3l0.1-0.2h8c0,2.7,0.5,4.6,1.6,5.8c1.1,1.2,2.7,1.8,4.8,1.8c1.8,0,3.1-0.5,4-1.5
		C47.6,56.7,48,55.4,48,53.8z"/>
	<path class="st0" d="M91.8,49.5c0,5-1.4,8.9-4.2,11.7c-2.8,2.8-6.6,4.2-11.3,4.2c-4.7,0-8.5-1.4-11.3-4.2
		c-2.8-2.8-4.2-6.7-4.2-11.7V37.6c0-5,1.4-8.9,4.2-11.7c2.8-2.8,6.5-4.3,11.3-4.3c4.7,0,8.5,1.4,11.3,4.3c2.8,2.8,4.3,6.8,4.3,11.7
		V49.5z M83.6,37.6c0-3.1-0.6-5.4-1.9-7c-1.3-1.6-3.1-2.4-5.5-2.4c-2.4,0-4.2,0.8-5.4,2.4c-1.2,1.6-1.8,3.9-1.8,7v12
		c0,3.2,0.6,5.5,1.8,7.1c1.2,1.6,3,2.4,5.4,2.4c2.4,0,4.2-0.8,5.5-2.4c1.2-1.6,1.9-4,1.9-7.1V37.6z"/>
	<path class="st0" d="M105.8,58.4h15.9v6.4H97.6V22.2h8.3V58.4z"/>
	<path class="st0" d="M126.7,64.9V22.2h13.1c4.4,0,8.1,1.7,11,5c2.9,3.3,4.4,7.6,4.4,12.8v7.1c0,5.2-1.5,9.5-4.4,12.8
		c-2.9,3.3-6.6,5-11,5H126.7z M134.9,28.7v29.7h4.9c2.1,0,3.8-1.1,5.2-3.2c1.3-2.1,2-4.8,2-8.2V40c0-3.3-0.7-6-2-8.1
		c-1.3-2.1-3-3.2-5.2-3.2H134.9z"/>
	<path class="st0" d="M204.5,49.5c0,5-1.4,8.9-4.2,11.7c-2.8,2.8-6.6,4.2-11.3,4.2s-8.5-1.4-11.3-4.2c-2.8-2.8-4.2-6.7-4.2-11.7
		V37.6c0-5,1.4-8.9,4.2-11.7c2.8-2.8,6.5-4.3,11.3-4.3s8.5,1.4,11.3,4.3c2.8,2.8,4.3,6.8,4.3,11.7V49.5z M196.3,37.6
		c0-3.1-0.6-5.4-1.9-7c-1.3-1.6-3.1-2.4-5.5-2.4c-2.4,0-4.2,0.8-5.4,2.4c-1.2,1.6-1.8,3.9-1.8,7v12c0,3.2,0.6,5.5,1.8,7.1
		s3,2.4,5.4,2.4c2.4,0,4.2-0.8,5.5-2.4s1.9-4,1.9-7.1V37.6z"/>
	<path class="st0" d="M240,22.2v27.8c0,4.8-1.4,8.6-4.2,11.3c-2.8,2.7-6.4,4.1-10.9,4.1c-4.4,0-8.1-1.4-10.8-4.1
		c-2.8-2.7-4.2-6.5-4.2-11.3V22.2h8.2v27.8c0,2.9,0.6,5.1,1.8,6.7s2.9,2.3,4.9,2.3c2.1,0,3.8-0.8,5-2.3c1.2-1.5,1.8-3.7,1.8-6.7
		V22.2H240z"/>
	<path class="st0" d="M271.8,28.7h-10v36.1h-8.3V28.7h-9.7v-6.5h28V28.7z"/>
</g>
<rect x="9.7" y="40.3" class="st0" width="274.7" height="6.4"/>
</svg>
