<?xml version="1.0" encoding="UTF-8" standalone="no"?>
<!DOCTYPE svg PUBLIC "-//W3C//DTD SVG 1.1//EN" "http://www.w3.org/Graphics/SVG/1.1/DTD/svg11.dtd">
<svg width="100%" height="100%" viewBox="0 0 168 46" version="1.1" xmlns="http://www.w3.org/2000/svg" xmlns:xlink="http://www.w3.org/1999/xlink" xml:space="preserve" xmlns:serif="http://www.serif.com/" style="fill-rule:evenodd;clip-rule:evenodd;stroke-linejoin:round;stroke-miterlimit:2;">
    <g transform="matrix(1,0,0,1,-8222.37,-876)">
        <g id="SoldOut" transform="matrix(1.03573,0,0,1,-95.5555,-0.000609437)">
            <rect x="8030.96" y="876.001" width="161.465" height="45.823" style="fill:none;"/>
            <clipPath id="_clip1">
                <rect x="8030.96" y="876.001" width="161.465" height="45.823"/>
            </clipPath>
            <g clip-path="url(#_clip1)">
                <g transform="matrix(0.965501,0,0,1,92.2589,0.000609437)">
                    <path d="M8389.6,876.001L8222.28,876.001L8222.28,921.824L8389.6,921.824L8389.6,876.001ZM8238.52,915.16C8243.34,915.16 8245.93,912.305 8245.93,907.213C8245.93,903.325 8244.64,900.822 8240.53,897.202C8237.31,894.387 8236.28,892.733 8236.28,890.454C8236.28,888.309 8237.18,887.46 8238.74,887.46C8240.31,887.46 8241.2,888.309 8241.2,890.544L8241.2,892.151L8245.84,892.151L8245.84,890.857C8245.84,885.854 8243.48,882.998 8238.7,882.998C8233.92,882.998 8231.37,885.854 8231.37,890.767C8231.37,894.342 8232.71,896.889 8236.82,900.509C8240.04,903.325 8241.02,904.978 8241.02,907.57C8241.02,909.894 8240.04,910.698 8238.48,910.698C8236.91,910.698 8235.93,909.894 8235.93,907.659L8235.93,905.516L8231.28,905.516L8231.28,907.302C8231.28,912.305 8233.69,915.16 8238.52,915.16ZM8332.3,915.16C8337.12,915.16 8339.62,912.305 8339.62,907.303L8339.62,883.445L8334.89,883.445L8334.89,907.66C8334.89,909.894 8333.95,910.698 8332.39,910.698C8330.82,910.698 8329.88,909.894 8329.88,907.66L8329.88,883.445L8324.97,883.445L8324.97,907.303C8324.97,912.305 8327.47,915.16 8332.3,915.16ZM8314.38,915.16C8319.21,915.16 8321.84,912.305 8321.84,907.302L8321.84,890.857C8321.84,885.854 8319.21,882.998 8314.38,882.998C8309.56,882.998 8306.92,885.854 8306.92,890.857L8306.92,907.302C8306.92,912.305 8309.56,915.16 8314.38,915.16ZM8255.85,915.16C8260.68,915.16 8263.31,912.305 8263.31,907.302L8263.31,890.857C8263.31,885.854 8260.68,882.998 8255.85,882.998C8251.03,882.998 8248.4,885.854 8248.4,890.857L8248.4,907.302C8248.4,912.305 8251.03,915.16 8255.85,915.16ZM8361.32,909.971L8356.59,909.971L8356.59,914.727L8361.32,914.727L8361.32,909.971ZM8346.95,914.714L8351.86,914.714L8351.86,887.907L8357,887.907L8357,883.445L8341.82,883.445L8341.82,887.907L8346.95,887.907L8346.95,914.714ZM8266.62,914.714L8279.62,914.714L8279.62,910.252L8271.53,910.252L8271.53,883.445L8266.62,883.445L8266.62,914.714ZM8281.99,914.714L8289.5,914.714C8294.41,914.714 8296.82,911.992 8296.82,906.989L8296.82,891.169C8296.82,886.167 8294.41,883.445 8289.5,883.445L8281.99,883.445L8281.99,914.714ZM8314.38,910.698C8312.82,910.698 8311.83,909.849 8311.83,907.615L8311.83,890.544C8311.83,888.309 8312.82,887.46 8314.38,887.46C8315.95,887.46 8316.93,888.309 8316.93,890.544L8316.93,907.615C8316.93,909.849 8315.95,910.698 8314.38,910.698ZM8255.85,910.698C8254.29,910.698 8253.31,909.849 8253.31,907.615L8253.31,890.544C8253.31,888.309 8254.29,887.46 8255.85,887.46C8257.42,887.46 8258.4,888.309 8258.4,890.544L8258.4,907.615C8258.4,909.849 8257.42,910.698 8255.85,910.698ZM8286.9,910.252L8286.9,887.907L8289.41,887.907C8290.97,887.907 8291.91,888.712 8291.91,890.946L8291.91,907.213C8291.91,909.447 8290.97,910.252 8289.41,910.252L8286.9,910.252Z" style="fill:rgb(148,148,148);"/>
                </g>
            </g>
        </g>
        <g id="Grupo-1" serif:id="Grupo 1">
        </g>
    </g>
</svg>
