<?xml version="1.0" encoding="UTF-8" standalone="no"?>
<!DOCTYPE svg PUBLIC "-//W3C//DTD SVG 1.1//EN" "http://www.w3.org/Graphics/SVG/1.1/DTD/svg11.dtd">
<svg width="100%" height="100%" viewBox="0 0 168 46" version="1.1" xmlns="http://www.w3.org/2000/svg" xmlns:xlink="http://www.w3.org/1999/xlink" xml:space="preserve" xmlns:serif="http://www.serif.com/" style="fill-rule:evenodd;clip-rule:evenodd;stroke-linejoin:round;stroke-miterlimit:2;">
    <g transform="matrix(1,0,0,1,-8031.05,-876)">
        <g id="Artboard2" transform="matrix(1.03573,0,0,1,-286.875,-0.000609437)">
            <rect x="8030.96" y="876.001" width="161.465" height="45.823" style="fill:none;"/>
            <clipPath id="_clip1">
                <rect x="8030.96" y="876.001" width="161.465" height="45.823"/>
            </clipPath>
            <g clip-path="url(#_clip1)">
                <g transform="matrix(0.965501,0,0,1,276.978,0.000609437)">
                    <path d="M8198.28,876.001L8030.96,876.001L8030.96,921.824L8198.28,921.824L8198.28,876.001ZM8047.91,915.16C8052.74,915.16 8055.37,912.305 8055.37,907.302L8055.37,890.857C8055.37,885.854 8052.74,882.998 8047.91,882.998C8043.09,882.998 8040.46,885.854 8040.46,890.857L8040.46,907.302C8040.46,912.305 8043.09,915.16 8047.91,915.16ZM8091.3,915.16C8096.12,915.16 8098.71,912.305 8098.71,907.213C8098.71,903.325 8097.42,900.822 8093.31,897.202C8090.09,894.387 8089.06,892.733 8089.06,890.454C8089.06,888.309 8089.95,887.46 8091.52,887.46C8093.09,887.46 8093.98,888.309 8093.98,890.544L8093.98,892.151L8098.62,892.151L8098.62,890.857C8098.62,885.854 8096.26,882.998 8091.48,882.998C8086.7,882.998 8084.15,885.854 8084.15,890.767C8084.15,894.342 8085.49,896.889 8089.6,900.509C8092.82,903.325 8093.8,904.978 8093.8,907.57C8093.8,909.894 8092.82,910.698 8091.25,910.698C8089.69,910.698 8088.7,909.894 8088.7,907.659L8088.7,905.516L8084.06,905.516L8084.06,907.302C8084.06,912.305 8086.47,915.16 8091.3,915.16ZM8058.69,914.714L8063.06,914.714L8063.06,891.888L8063.15,891.888L8069.05,914.714L8074.09,914.714L8074.09,883.445L8069.72,883.445L8069.72,902.162L8069.63,902.162L8064.85,883.445L8058.69,883.445L8058.69,914.714ZM8100.1,914.714L8104.66,914.714L8105.55,908.593L8111.13,908.593L8111.13,908.504L8112.03,914.714L8116.94,914.714L8111.85,883.445L8105.19,883.445L8100.1,914.714ZM8151.12,914.714L8155.85,914.714L8155.85,909.983L8151.12,909.983L8151.12,914.714ZM8119.31,914.714L8132.31,914.714L8132.31,910.252L8124.22,910.252L8124.22,883.445L8119.31,883.445L8119.31,914.714ZM8134.68,914.714L8148.08,914.714L8148.08,910.252L8139.59,910.252L8139.59,900.64L8146.34,900.64L8146.34,896.178L8139.59,896.178L8139.59,887.907L8148.08,887.907L8148.08,883.445L8134.68,883.445L8134.68,914.714ZM8047.91,910.698C8046.35,910.698 8045.37,909.849 8045.37,907.615L8045.37,890.544C8045.37,888.309 8046.35,887.46 8047.91,887.46C8049.48,887.46 8050.47,888.309 8050.47,890.544L8050.47,907.615C8050.47,909.849 8049.48,910.698 8047.91,910.698ZM8106.13,904.354L8108.28,888.89L8108.36,888.89L8110.55,904.354L8106.13,904.354Z" style="fill:rgb(233,141,80);"/>
                </g>
            </g>
        </g>
        <g id="Grupo-1" serif:id="Grupo 1">
        </g>
    </g>
</svg>
