<?xml version="1.0" encoding="UTF-8" standalone="no"?>
<!DOCTYPE svg PUBLIC "-//W3C//DTD SVG 1.1//EN" "http://www.w3.org/Graphics/SVG/1.1/DTD/svg11.dtd">
<svg width="100%" height="100%" viewBox="0 0 168 46" version="1.1" xmlns="http://www.w3.org/2000/svg" xmlns:xlink="http://www.w3.org/1999/xlink" xml:space="preserve" xmlns:serif="http://www.serif.com/" style="fill-rule:evenodd;clip-rule:evenodd;stroke-linejoin:round;stroke-miterlimit:2;">
    <g transform="matrix(1,0,0,1,-8220.85,-929.73)">
        <g id="Artboard2" transform="matrix(1.03573,0,0,1,-97.0709,53.7294)">
            <rect x="8030.96" y="876.001" width="161.465" height="45.823" style="fill:none;"/>
            <clipPath id="_clip1">
                <rect x="8030.96" y="876.001" width="161.465" height="45.823"/>
            </clipPath>
            <g clip-path="url(#_clip1)">
                <g transform="matrix(0.965501,0,0,1,93.722,-53.7294)">
                    <path d="M8388.13,929.73L8220.81,929.73L8220.81,975.553L8388.13,975.553L8388.13,929.73ZM8320.28,968.89C8325.24,968.89 8327.97,966.168 8327.97,961.164L8327.97,958.393C8327.97,955.398 8327.07,953.209 8324.75,952.005L8324.75,951.915C8326.76,950.8 8327.79,948.834 8327.79,945.75L8327.79,944.453C8327.79,939.449 8325.07,936.728 8320.28,936.728C8315.5,936.728 8312.78,939.449 8312.78,944.453L8312.78,945.75C8312.78,948.834 8313.76,950.8 8315.82,951.915L8315.82,952.005C8313.49,953.209 8312.6,955.398 8312.6,958.393L8312.6,961.164C8312.6,966.168 8315.32,968.89 8320.28,968.89ZM8230.66,968.443L8234.95,968.443L8234.95,944.764L8235.04,944.764L8238.61,968.443L8242.72,968.443L8246.3,944.764L8246.39,944.764L8246.39,968.443L8251.03,968.443L8251.03,937.174L8244.02,937.174L8240.89,959.552L8240.8,959.552L8237.67,937.174L8230.66,937.174L8230.66,968.443ZM8275.07,968.443L8279.98,968.443L8279.98,955.132L8285.92,937.174L8281.14,937.174L8277.8,948.655L8277.7,948.655L8274.36,937.174L8269.13,937.174L8275.07,955.132L8275.07,968.443ZM8253.4,968.443L8257.96,968.443L8258.85,962.322L8264.43,962.322L8264.43,962.233L8265.33,968.443L8270.24,968.443L8265.15,937.174L8258.5,937.174L8253.4,968.443ZM8295.22,968.443L8309.42,968.443L8309.42,963.981L8300.09,963.981L8300.09,963.311C8300.09,961.121 8300.85,959.557 8303.8,956.429C8308.35,951.602 8309.87,948.295 8309.87,944.586C8309.87,939.583 8307.37,936.728 8302.55,936.728C8297.72,936.728 8295.22,939.583 8295.22,944.586L8295.22,947.625L8299.86,947.625L8299.86,944.273C8299.86,942.039 8300.85,941.19 8302.41,941.19C8303.98,941.19 8304.96,941.949 8304.96,944.765C8304.96,947.67 8303.89,950.038 8300.13,954.015C8296.47,957.859 8295.22,960.585 8295.22,965.052L8295.22,968.443ZM8336.74,963.716L8331.95,963.716L8331.95,968.431L8336.74,968.431L8336.74,963.716ZM8320.28,964.428C8318.45,964.428 8317.51,963.265 8317.51,960.896L8317.51,957.901C8317.51,955.532 8318.45,954.37 8320.28,954.37C8322.12,954.37 8323.06,955.532 8323.06,957.901L8323.06,960.896C8323.06,963.265 8322.12,964.428 8320.28,964.428ZM8259.43,958.083L8261.58,942.619L8261.67,942.619L8263.85,958.083L8259.43,958.083ZM8320.28,949.907C8318.58,949.907 8317.69,948.834 8317.69,946.778L8317.69,944.319C8317.69,942.263 8318.58,941.19 8320.28,941.19C8321.98,941.19 8322.88,942.263 8322.88,944.319L8322.88,946.778C8322.88,948.834 8321.98,949.907 8320.28,949.907Z" style="fill:rgb(233,141,80);"/>
                </g>
            </g>
        </g>
        <g id="Grupo-1" serif:id="Grupo 1">
        </g>
    </g>
</svg>
