<?xml version="1.0" encoding="UTF-8" standalone="no"?>
<!DOCTYPE svg PUBLIC "-//W3C//DTD SVG 1.1//EN" "http://www.w3.org/Graphics/SVG/1.1/DTD/svg11.dtd">
<svg width="100%" height="100%" viewBox="0 0 168 46" version="1.1" xmlns="http://www.w3.org/2000/svg" xmlns:xlink="http://www.w3.org/1999/xlink" xml:space="preserve" xmlns:serif="http://www.serif.com/" style="fill-rule:evenodd;clip-rule:evenodd;stroke-linejoin:round;stroke-miterlimit:2;">
    <g transform="matrix(1,0,0,1,-8398.91,-875.41)">
        <g id="Artboard2" transform="matrix(1.03573,0,0,1,80.9887,-0.590128)">
            <rect x="8030.96" y="876.001" width="161.465" height="45.823" style="fill:none;"/>
            <clipPath id="_clip1">
                <rect x="8030.96" y="876.001" width="161.465" height="45.823"/>
            </clipPath>
            <g clip-path="url(#_clip1)">
                <g transform="matrix(0.965501,0,0,1,-78.1946,0.590128)">
                    <path d="M8566.19,875.41L8398.87,875.41L8398.87,921.234L8566.19,921.234L8566.19,875.41ZM8427.71,914.57C8432.53,914.57 8435.03,911.715 8435.03,906.713L8435.03,882.855L8430.3,882.855L8430.3,907.07C8430.3,909.304 8429.36,910.108 8427.8,910.108C8426.23,910.108 8425.29,909.304 8425.29,907.07L8425.29,882.855L8420.38,882.855L8420.38,906.713C8420.38,911.715 8422.88,914.57 8427.71,914.57ZM8471.85,914.57C8476.67,914.57 8479.31,911.715 8479.31,906.712L8479.31,890.266C8479.31,885.264 8476.67,882.408 8471.85,882.408C8467.02,882.408 8464.39,885.264 8464.39,890.266L8464.39,906.712C8464.39,911.715 8467.02,914.57 8471.85,914.57ZM8489.54,914.57C8494.64,914.57 8497.05,911.715 8497.05,906.442L8497.05,890.267C8497.05,885.264 8494.41,882.408 8489.59,882.408C8484.76,882.408 8482.13,885.264 8482.13,890.267L8482.13,895.855C8482.13,900.455 8483.96,902.999 8487.57,902.999C8489.76,902.999 8491.2,902.062 8492.05,900.277L8492.14,900.277L8492.14,906.263C8492.14,909.259 8491.15,910.108 8489.41,910.108C8487.84,910.108 8486.86,909.259 8486.86,907.023L8486.86,906.129L8482.22,906.129L8482.22,906.71C8482.22,911.715 8484.72,914.57 8489.54,914.57ZM8409.88,914.302C8414.71,914.302 8417.03,911.848 8417.03,906.713L8417.03,882.855L8412.12,882.855L8412.12,906.847C8412.12,908.902 8411.18,909.84 8409.21,909.84C8408.68,909.84 8408.14,909.795 8407.6,909.661L8407.6,914.124C8408.32,914.258 8408.99,914.302 8409.88,914.302ZM8438.52,914.124L8442.9,914.124L8442.9,891.297L8442.99,891.297L8448.89,914.124L8453.93,914.124L8453.93,882.855L8449.56,882.855L8449.56,901.571L8449.47,901.571L8444.68,882.855L8438.52,882.855L8438.52,914.124ZM8500.49,914.124L8505.22,914.124L8505.22,909.393L8500.49,909.393L8500.49,914.124ZM8471.85,910.108C8470.28,910.108 8469.3,909.259 8469.3,907.025L8469.3,889.954C8469.3,887.719 8470.28,886.87 8471.85,886.87C8473.42,886.87 8474.4,887.719 8474.4,889.954L8474.4,907.025C8474.4,909.259 8473.42,910.108 8471.85,910.108ZM8489.59,898.537C8487.89,898.537 8487.04,897.553 8487.04,895.452L8487.04,889.91C8487.04,887.854 8487.89,886.87 8489.59,886.87C8491.29,886.87 8492.14,887.854 8492.14,889.91L8492.14,895.452C8492.14,897.553 8491.29,898.537 8489.59,898.537Z" style="fill:rgb(233,141,80);"/>
                </g>
            </g>
        </g>
        <g id="Grupo-1" serif:id="Grupo 1">
        </g>
    </g>
</svg>
