<?xml version="1.0" encoding="UTF-8" standalone="no"?>
<!DOCTYPE svg PUBLIC "-//W3C//DTD SVG 1.1//EN" "http://www.w3.org/Graphics/SVG/1.1/DTD/svg11.dtd">
<svg width="100%" height="100%" viewBox="0 0 241 46" version="1.1" xmlns="http://www.w3.org/2000/svg" xmlns:xlink="http://www.w3.org/1999/xlink" xml:space="preserve" xmlns:serif="http://www.serif.com/" style="fill-rule:evenodd;clip-rule:evenodd;stroke-linejoin:round;stroke-miterlimit:2;">
    <g transform="matrix(1,0,0,1,-8509.43,-729.711)">
        <g id="Artboard2" transform="matrix(1.48823,0,0,1,-3442.49,-146.29)">
            <rect x="8030.96" y="876.001" width="161.465" height="45.823" style="fill:none;"/>
            <clipPath id="_clip1">
                <rect x="8030.96" y="876.001" width="161.465" height="45.823"/>
            </clipPath>
            <g clip-path="url(#_clip1)">
                <g transform="matrix(0.671939,0,0,1,2313.14,146.29)">
                    <path d="M8750.74,729.711L8509.38,729.711L8509.38,775.534L8750.74,775.534L8750.74,729.711ZM8560.43,768.871C8565.26,768.871 8567.75,766.015 8567.75,761.011L8567.75,750.782L8560.65,750.782L8560.65,755.244L8563.11,755.244L8563.11,761.369C8563.11,763.604 8562.13,764.409 8560.56,764.409C8559,764.409 8558.01,763.604 8558.01,761.369L8558.01,744.255C8558.01,742.02 8559,741.171 8560.56,741.171C8562.13,741.171 8563.11,742.02 8563.11,744.255L8563.11,747.25L8567.75,747.25L8567.75,744.568C8567.75,739.564 8565.26,736.709 8560.43,736.709C8555.6,736.709 8553.11,739.564 8553.11,744.568L8553.11,761.011C8553.11,766.015 8555.6,768.871 8560.43,768.871ZM8585.9,768.871C8590.72,768.871 8593.31,766.015 8593.31,760.923C8593.31,757.035 8592.02,754.533 8587.91,750.913C8584.69,748.097 8583.66,746.444 8583.66,744.165C8583.66,742.02 8584.55,741.171 8586.12,741.171C8587.68,741.171 8588.58,742.02 8588.58,744.254L8588.58,745.862L8593.22,745.862L8593.22,744.567C8593.22,739.564 8590.86,736.709 8586.08,736.709C8581.29,736.709 8578.75,739.564 8578.75,744.478C8578.75,748.053 8580.09,750.6 8584.2,754.22C8587.42,757.035 8588.4,758.689 8588.4,761.281C8588.4,763.604 8587.42,764.409 8585.85,764.409C8584.29,764.409 8583.3,763.604 8583.3,761.37L8583.3,759.226L8578.66,759.226L8578.66,761.012C8578.66,766.015 8581.07,768.871 8585.9,768.871ZM8519.24,768.424L8524.15,768.424L8524.15,755.021L8525.85,755.021C8528.09,755.021 8528.93,755.959 8528.93,758.863L8528.93,764.582C8528.93,767.129 8529.11,767.62 8529.38,768.424L8534.38,768.424C8533.89,767.263 8533.84,766.146 8533.84,764.627L8533.84,759.131C8533.84,755.602 8533.04,753.281 8530.59,752.522L8530.59,752.433C8532.77,751.54 8533.8,749.486 8533.8,746.267L8533.8,744.345C8533.8,739.52 8531.61,737.155 8526.52,737.155L8519.24,737.155L8519.24,768.424ZM8570.93,768.424L8575.84,768.424L8575.84,737.155L8570.93,737.155L8570.93,768.424ZM8612.39,768.424L8617.3,768.424L8617.3,755.021L8619,755.021C8621.24,755.021 8622.09,755.959 8622.09,758.863L8622.09,764.582C8622.09,767.129 8622.27,767.62 8622.53,768.424L8627.53,768.424C8627.04,767.263 8627,766.146 8627,764.627L8627,759.131C8627,755.602 8626.19,753.281 8623.74,752.522L8623.74,752.433C8625.93,751.54 8626.95,749.486 8626.95,746.267L8626.95,744.345C8626.95,739.52 8624.77,737.155 8619.67,737.155L8612.39,737.155L8612.39,768.424ZM8650.1,768.424L8655.01,768.424L8655.01,741.618L8660.15,741.618L8660.15,737.155L8644.96,737.155L8644.96,741.618L8650.1,741.618L8650.1,768.424ZM8599.97,768.424L8604.88,768.424L8604.88,741.618L8610.02,741.618L8610.02,737.155L8594.84,737.155L8594.84,741.618L8599.97,741.618L8599.97,768.424ZM8629.1,768.424L8633.66,768.424L8634.55,762.303L8640.13,762.303L8640.13,762.214L8641.03,768.424L8645.94,768.424L8640.85,737.155L8634.19,737.155L8629.1,768.424ZM8678.96,768.424L8683.69,768.424L8683.69,763.694L8678.96,763.694L8678.96,768.424ZM8537.25,768.424L8550.64,768.424L8550.64,763.962L8542.15,763.962L8542.15,754.351L8548.9,754.351L8548.9,749.889L8542.15,749.889L8542.15,741.618L8550.64,741.618L8550.64,737.155L8537.25,737.155L8537.25,768.424ZM8662.52,768.424L8675.92,768.424L8675.92,763.962L8667.43,763.962L8667.43,754.351L8674.18,754.351L8674.18,749.889L8667.43,749.889L8667.43,741.618L8675.92,741.618L8675.92,737.155L8662.52,737.155L8662.52,768.424ZM8635.13,758.065L8637.28,742.6L8637.36,742.6L8639.55,758.065L8635.13,758.065ZM8524.15,750.559L8524.15,741.618L8526.39,741.618C8528.13,741.618 8528.89,742.601 8528.89,744.836L8528.89,747.25C8528.89,749.754 8527.77,750.559 8525.94,750.559L8524.15,750.559ZM8617.3,750.559L8617.3,741.618L8619.54,741.618C8621.28,741.618 8622.04,742.601 8622.04,744.836L8622.04,747.25C8622.04,749.754 8620.92,750.559 8619.09,750.559L8617.3,750.559ZM8570.71,735.05L8574.41,735.05L8579.19,729.918L8573.83,729.918L8570.71,735.05Z" style="fill:rgb(233,141,80);"/>
                </g>
            </g>
        </g>
        <g id="Grupo-1" serif:id="Grupo 1">
        </g>
    </g>
</svg>
