<?xml version="1.0" encoding="UTF-8" standalone="no"?>
<!DOCTYPE svg PUBLIC "-//W3C//DTD SVG 1.1//EN" "http://www.w3.org/Graphics/SVG/1.1/DTD/svg11.dtd">
<svg width="100%" height="100%" viewBox="0 0 168 46" version="1.1" xmlns="http://www.w3.org/2000/svg" xmlns:xlink="http://www.w3.org/1999/xlink" xml:space="preserve" xmlns:serif="http://www.serif.com/" style="fill-rule:evenodd;clip-rule:evenodd;stroke-linejoin:round;stroke-miterlimit:2;">
    <g transform="matrix(1,0,0,1,-8031.05,-929.73)">
        <g id="Artboard2" transform="matrix(1.03573,0,0,1,-286.875,53.7294)">
            <rect x="8030.96" y="876.001" width="161.465" height="45.823" style="fill:none;"/>
            <clipPath id="_clip1">
                <rect x="8030.96" y="876.001" width="161.465" height="45.823"/>
            </clipPath>
            <g clip-path="url(#_clip1)">
                <g transform="matrix(0.965501,0,0,1,276.978,-53.7294)">
                    <path d="M8198.28,929.731L8030.96,929.731L8030.96,975.554L8198.28,975.554L8198.28,929.731ZM8047.2,968.891C8052.03,968.891 8054.61,966.035 8054.61,960.943C8054.61,957.055 8053.32,954.552 8049.21,950.932C8045.99,948.117 8044.96,946.463 8044.96,944.184C8044.96,942.039 8045.86,941.19 8047.42,941.19C8048.99,941.19 8049.88,942.039 8049.88,944.274L8049.88,945.881L8054.53,945.881L8054.53,944.587C8054.53,939.584 8052.16,936.728 8047.38,936.728C8042.6,936.728 8040.06,939.584 8040.06,944.497C8040.06,948.072 8041.39,950.62 8045.5,954.239C8048.72,957.055 8049.7,958.708 8049.7,961.3C8049.7,963.624 8048.72,964.428 8047.16,964.428C8045.59,964.428 8044.61,963.624 8044.61,961.389L8044.61,959.246L8039.97,959.246L8039.97,961.032C8039.97,966.035 8042.38,968.891 8047.2,968.891ZM8082.41,968.891C8087.23,968.891 8089.86,966.035 8089.86,961.032L8089.86,944.587C8089.86,939.584 8087.23,936.728 8082.41,936.728C8077.58,936.728 8074.95,939.584 8074.95,944.587L8074.95,961.032C8074.95,966.035 8077.58,968.891 8082.41,968.891ZM8064.53,968.891C8069.36,968.891 8071.99,966.035 8071.99,961.032L8071.99,944.587C8071.99,939.584 8069.36,936.728 8064.53,936.728C8059.71,936.728 8057.08,939.584 8057.08,944.587L8057.08,961.032C8057.08,966.035 8059.71,968.891 8064.53,968.891ZM8093.18,968.444L8097.55,968.444L8097.55,945.618L8097.64,945.618L8103.54,968.444L8108.59,968.444L8108.59,937.175L8104.21,937.175L8104.21,955.892L8104.12,955.892L8099.34,937.175L8093.18,937.175L8093.18,968.444ZM8112.25,968.444L8116.98,968.444L8116.98,963.713L8112.25,963.713L8112.25,968.444ZM8082.41,964.428C8080.84,964.428 8079.86,963.579 8079.86,961.345L8079.86,944.274C8079.86,942.039 8080.84,941.19 8082.41,941.19C8083.97,941.19 8084.96,942.039 8084.96,944.274L8084.96,961.345C8084.96,963.579 8083.97,964.428 8082.41,964.428ZM8064.53,964.428C8062.97,964.428 8061.99,963.579 8061.99,961.345L8061.99,944.274C8061.99,942.039 8062.97,941.19 8064.53,941.19C8066.1,941.19 8067.09,942.039 8067.09,944.274L8067.09,961.345C8067.09,963.579 8066.1,964.428 8064.53,964.428Z" style="fill:rgb(233,141,80);"/>
                </g>
            </g>
        </g>
        <g id="Grupo-1" serif:id="Grupo 1">
        </g>
    </g>
</svg>
