<?xml version="1.0" encoding="UTF-8" standalone="no"?>
<!DOCTYPE svg PUBLIC "-//W3C//DTD SVG 1.1//EN" "http://www.w3.org/Graphics/SVG/1.1/DTD/svg11.dtd">
<svg width="100%" height="100%" viewBox="0 0 168 46" version="1.1" xmlns="http://www.w3.org/2000/svg" xmlns:xlink="http://www.w3.org/1999/xlink" xml:space="preserve" xmlns:serif="http://www.serif.com/" style="fill-rule:evenodd;clip-rule:evenodd;stroke-linejoin:round;stroke-miterlimit:2;">
    <g transform="matrix(1,0,0,1,-8398.91,-929.87)">
        <g id="Artboard2" transform="matrix(1.03573,0,0,1,80.9887,53.8696)">
            <rect x="8030.96" y="876.001" width="161.465" height="45.823" style="fill:none;"/>
            <clipPath id="_clip1">
                <rect x="8030.96" y="876.001" width="161.465" height="45.823"/>
            </clipPath>
            <g clip-path="url(#_clip1)">
                <g transform="matrix(0.965501,0,0,1,-78.1946,-53.8696)">
                    <path d="M8566.19,929.87L8398.87,929.87L8398.87,975.693L8566.19,975.693L8566.19,929.87ZM8427.71,969.03C8432.53,969.03 8435.03,966.174 8435.03,961.172L8435.03,937.314L8430.3,937.314L8430.3,961.53C8430.3,963.764 8429.36,964.568 8427.8,964.568C8426.23,964.568 8425.29,963.764 8425.29,961.53L8425.29,937.314L8420.38,937.314L8420.38,961.172C8420.38,966.174 8422.88,969.03 8427.71,969.03ZM8471.85,969.03C8476.67,969.03 8479.31,966.174 8479.31,961.172L8479.31,944.726C8479.31,939.723 8476.67,936.868 8471.85,936.868C8467.02,936.868 8464.39,939.723 8464.39,944.726L8464.39,961.172C8464.39,966.174 8467.02,969.03 8471.85,969.03ZM8409.88,968.762C8414.71,968.762 8417.03,966.308 8417.03,961.172L8417.03,937.314L8412.12,937.314L8412.12,961.306C8412.12,963.362 8411.18,964.3 8409.21,964.3C8408.68,964.3 8408.14,964.255 8407.6,964.121L8407.6,968.583C8408.32,968.717 8408.99,968.762 8409.88,968.762ZM8438.52,968.583L8442.9,968.583L8442.9,945.757L8442.99,945.757L8448.89,968.583L8453.93,968.583L8453.93,937.314L8449.56,937.314L8449.56,956.031L8449.47,956.031L8444.68,937.314L8438.52,937.314L8438.52,968.583ZM8500.49,968.583L8505.22,968.583L8505.22,963.853L8500.49,963.853L8500.49,968.583ZM8482.53,968.583L8496.73,968.583L8496.73,964.121L8487.39,964.121L8487.39,963.451C8487.39,961.261 8488.16,959.697 8491.11,956.569C8495.66,951.742 8497.18,948.435 8497.18,944.726C8497.18,939.723 8494.68,936.868 8489.85,936.868C8485.03,936.868 8482.53,939.723 8482.53,944.726L8482.53,947.765L8487.17,947.765L8487.17,944.413C8487.17,942.179 8488.16,941.33 8489.72,941.33C8491.29,941.33 8492.27,942.09 8492.27,944.905C8492.27,947.81 8491.2,950.178 8487.44,954.156C8483.78,957.999 8482.53,960.725 8482.53,965.192L8482.53,968.583ZM8471.85,964.568C8470.28,964.568 8469.3,963.719 8469.3,961.484L8469.3,944.413C8469.3,942.179 8470.28,941.33 8471.85,941.33C8473.42,941.33 8474.4,942.179 8474.4,944.413L8474.4,961.484C8474.4,963.719 8473.42,964.568 8471.85,964.568Z" style="fill:rgb(233,141,80);"/>
                </g>
            </g>
        </g>
        <g id="Grupo-1" serif:id="Grupo 1">
        </g>
    </g>
</svg>
