<?xml version="1.0" encoding="UTF-8" standalone="no"?>
<!DOCTYPE svg PUBLIC "-//W3C//DTD SVG 1.1//EN" "http://www.w3.org/Graphics/SVG/1.1/DTD/svg11.dtd">
<svg width="100%" height="100%" viewBox="0 0 168 46" version="1.1" xmlns="http://www.w3.org/2000/svg" xmlns:xlink="http://www.w3.org/1999/xlink" xml:space="preserve" xmlns:serif="http://www.serif.com/" style="fill-rule:evenodd;clip-rule:evenodd;stroke-linejoin:round;stroke-miterlimit:2;">
    <g transform="matrix(1,0,0,1,-8226.77,-763.483)">
        <g id="Artboard2" transform="matrix(1.03573,0,0,1,-91.1514,-112.518)">
            <rect x="8030.96" y="876.001" width="161.465" height="45.823" style="fill:none;"/>
            <clipPath id="_clip1">
                <rect x="8030.96" y="876.001" width="161.465" height="45.823"/>
            </clipPath>
            <g clip-path="url(#_clip1)">
                <g transform="matrix(0.965501,0,0,1,88.0067,112.518)">
                    <path d="M8394.05,763.483L8226.73,763.483L8226.73,809.306L8394.05,809.306L8394.05,763.483ZM8268.12,798.863C8268.12,796.453 8266.7,795.161 8264.15,795.161C8262.21,795.161 8260.96,795.807 8259.15,797.858C8257.75,799.466 8256.92,799.98 8255.78,799.98C8254.71,799.98 8254.29,799.533 8254.29,798.751C8254.29,797.97 8254.71,797.523 8255.83,797.523L8256.63,797.523L8256.63,795.205L8255.99,795.205C8253.49,795.205 8252.06,796.386 8252.06,798.774C8252.06,801.161 8253.49,802.431 8255.94,802.431C8257.73,802.431 8259,801.763 8260.81,799.712C8262.21,798.104 8263.04,797.612 8264.33,797.612C8265.49,797.612 8265.89,798.104 8265.89,798.885C8265.89,799.667 8265.49,800.158 8264.38,800.158L8263.31,800.158L8263.31,802.476L8264.2,802.476C8266.7,802.476 8268.12,801.272 8268.12,798.863ZM8298.45,802.476C8303.28,802.476 8305.78,799.62 8305.78,794.618L8305.78,770.76L8301.05,770.76L8301.05,794.976C8301.05,797.209 8300.11,798.014 8298.55,798.014C8296.98,798.014 8296.04,797.209 8296.04,794.976L8296.04,770.76L8291.13,770.76L8291.13,794.618C8291.13,799.62 8293.63,802.476 8298.45,802.476ZM8342.6,802.476C8347.42,802.476 8350.06,799.62 8350.06,794.617L8350.06,778.172C8350.06,773.169 8347.42,770.313 8342.6,770.313C8337.77,770.313 8335.14,773.169 8335.14,778.172L8335.14,794.617C8335.14,799.62 8337.77,802.476 8342.6,802.476ZM8360.29,802.476C8365.38,802.476 8367.79,799.62 8367.79,794.347L8367.79,778.173C8367.79,773.169 8365.16,770.313 8360.33,770.313C8355.51,770.313 8352.88,773.169 8352.88,778.173L8352.88,783.76C8352.88,788.361 8354.71,790.904 8358.32,790.904C8360.51,790.904 8361.94,789.967 8362.79,788.182L8362.88,788.182L8362.88,794.168C8362.88,797.164 8361.9,798.014 8360.16,798.014C8358.59,798.014 8357.61,797.164 8357.61,794.928L8357.61,794.034L8352.97,794.034L8352.97,794.615C8352.97,799.62 8355.46,802.476 8360.29,802.476ZM8250.49,798.506C8250.49,796.096 8249.07,794.782 8246.57,794.782L8238.36,794.782C8235.86,794.782 8234.43,796.096 8234.43,798.506C8234.43,800.916 8235.86,802.23 8238.36,802.23L8246.57,802.23C8249.07,802.23 8250.49,800.916 8250.49,798.506ZM8280.63,802.208C8285.45,802.208 8287.77,799.754 8287.77,794.618L8287.77,770.76L8282.87,770.76L8282.87,794.752C8282.87,796.807 8281.93,797.746 8279.96,797.746C8279.43,797.746 8278.89,797.701 8278.35,797.567L8278.35,802.029C8279.07,802.163 8279.74,802.208 8280.63,802.208ZM8309.27,802.029L8313.64,802.029L8313.64,779.203L8313.73,779.203L8319.64,802.029L8324.68,802.029L8324.68,770.76L8320.31,770.76L8320.31,789.477L8320.22,789.477L8315.43,770.76L8309.27,770.76L8309.27,802.029ZM8371.24,802.029L8375.97,802.029L8375.97,797.299L8371.24,797.299L8371.24,802.029ZM8248.27,798.506C8248.27,799.288 8247.84,799.779 8246.73,799.779L8238.2,799.779C8237.09,799.779 8236.66,799.288 8236.66,798.506C8236.66,797.724 8237.09,797.233 8238.2,797.233L8246.73,797.233C8247.84,797.233 8248.27,797.724 8248.27,798.506ZM8342.6,798.014C8341.03,798.014 8340.05,797.165 8340.05,794.93L8340.05,777.859C8340.05,775.625 8341.03,774.776 8342.6,774.776C8344.16,774.776 8345.15,775.625 8345.15,777.859L8345.15,794.93C8345.15,797.165 8344.16,798.014 8342.6,798.014ZM8267.9,794.466L8267.9,792.192L8264.84,791.746L8264.84,788.958L8264.8,788.958L8267.9,788.512L8267.9,786.058L8252.28,788.601L8252.28,791.924L8267.9,794.466ZM8250.27,793.128L8250.27,790.944L8238.87,790.944L8238.87,790.9L8250.27,787.952L8250.27,785.434L8234.66,785.434L8234.66,787.617L8244,787.617L8244,787.662L8234.66,790.051L8234.66,793.128L8250.27,793.128ZM8262.73,791.456L8255,790.385L8255,790.34L8262.73,789.248L8262.73,791.456ZM8360.33,786.442C8358.64,786.442 8357.78,785.459 8357.78,783.358L8357.78,777.815C8357.78,775.759 8358.64,774.776 8360.33,774.776C8362.03,774.776 8362.88,775.759 8362.88,777.815L8362.88,783.358C8362.88,785.459 8362.03,786.442 8360.33,786.442ZM8267.9,784.873L8267.9,778.384L8265.67,778.384L8265.67,782.422L8252.28,782.422L8252.28,784.873L8267.9,784.873ZM8267.9,777.198L8267.9,770.508L8265.67,770.508L8265.67,774.747L8260.87,774.747L8260.87,771.378L8258.64,771.378L8258.64,774.747L8254.51,774.747L8254.51,770.508L8252.28,770.508L8252.28,777.198L8267.9,777.198Z" style="fill:rgb(233,141,80);"/>
                </g>
            </g>
        </g>
        <g id="Grupo-1" serif:id="Grupo 1">
        </g>
    </g>
</svg>
